<?xml version="1.0" encoding="UTF-8"?>
<svg width="2857px" height="776px" viewBox="0 0 2857 776" version="1.1" xmlns="http://www.w3.org/2000/svg" xmlns:xlink="http://www.w3.org/1999/xlink">
    <!-- Generator: Sketch 41.1 (35376) - http://www.bohemiancoding.com/sketch -->
    <title>github</title>
    <desc>Created with Sketch.</desc>
    <defs></defs>
    <g id="Page-1" stroke="none" stroke-width="1" fill="none" fill-rule="evenodd">
        <g id="github" fill="#FFFFFF">
            <path d="M552.73,332.135 L311.557,332.135 C305.352,332.135 300.307,337.18 300.307,343.432 L300.307,461.319 C300.307,467.571 305.352,472.591 311.557,472.591 L405.666,472.591 L405.666,619.133 C405.666,619.133 384.521,626.19 326.17,626.19 C257.256,626.19 161.014,600.946 161.014,389.395 C161.014,177.753 261.211,149.904 355.321,149.904 C436.786,149.904 471.835,164.208 494.19,171.145 C501.2,173.348 507.594,166.314 507.594,160.04 L534.543,46.13 C534.543,43.218 533.502,39.713 530.281,37.345 C521.186,30.952 465.865,0 326.168,0 C165.133,0 0,68.487 0,397.757 C0,726.979 189.051,776 348.381,776 C480.264,776 560.402,719.686 560.402,719.686 C563.67,717.885 564.002,713.291 564.002,711.207 L564.002,343.432 C563.955,337.227 558.887,332.135 552.73,332.135 Z M1772.381,28.134 L1636.686,28.134 C1630.434,28.134 1625.415,33.178 1625.415,39.43 L1625.415,301.823 L1413.796,301.823 L1413.796,39.43 C1413.796,33.178 1408.728,28.134 1402.618,28.134 L1266.78,28.134 C1260.669,28.134 1255.696,33.178 1255.696,39.43 L1255.696,749.903 C1255.696,756.202 1260.717,761.223 1266.78,761.223 L1402.618,761.223 C1408.821,761.223 1413.796,756.155 1413.796,749.903 L1413.796,446.067 L1625.415,446.067 L1624.94,749.95 C1624.94,756.25 1629.961,761.222 1636.024,761.222 L1771.909,761.222 C1778.161,761.222 1783.04,756.154 1783.04,749.95 L1783.513,39.429 C1783.607,33.178 1778.539,28.134 1772.381,28.134 Z M714.949,44.237 C666.592,44.237 627.375,83.809 627.375,132.64 C627.375,181.495 666.592,221.068 714.949,221.068 C763.306,221.068 802.476,181.496 802.476,132.64 C802.477,83.81 763.307,44.237 714.949,44.237 Z M792.861,272.126 C792.861,265.921 787.841,260.782 781.73,260.782 L646.32,260.782 C639.972,260.782 634.574,267.176 634.574,273.452 L634.574,743.319 C634.574,757.054 643.146,761.222 654.277,761.222 L776.236,761.222 C789.547,761.222 793.05,754.686 793.05,743.034 C792.956,717.837 792.956,619.226 792.956,600.092 C792.861,581.905 792.861,272.126 792.861,272.126 Z M2297.973,261.848 L2163.272,261.848 C2157.114,261.848 2152.188,266.94 2152.188,273.192 L2152.188,621.502 C2152.188,621.502 2117.944,646.699 2069.254,646.699 C2020.707,646.699 2007.729,624.675 2007.729,576.98 L2007.729,273.145 C2007.729,266.893 2002.661,261.8 1996.598,261.8 L1859.955,261.8 C1853.703,261.8 1848.777,266.893 1848.777,273.145 L1848.777,599.952 C1848.777,741.236 1927.543,775.858 2035.767,775.858 C2124.621,775.858 2196.376,726.743 2196.376,726.743 C2196.376,726.743 2199.739,752.509 2201.444,755.587 C2202.866,758.665 2206.891,761.745 2211.296,761.745 L2297.876,761.745 C2304.034,761.745 2309.054,756.676 2309.054,750.424 L2309.433,273.146 C2309.15,266.939 2304.129,261.848 2297.973,261.848 Z M2666.932,245.839 C2590.393,245.839 2538.34,279.987 2538.34,279.987 L2538.34,39.43 C2538.34,33.178 2533.272,28.134 2527.209,28.134 L2390.945,28.134 C2384.836,28.134 2379.814,33.178 2379.814,39.43 L2379.435,749.951 C2379.435,756.251 2384.503,761.223 2390.66,761.223 L2485.529,761.223 C2489.744,761.223 2492.918,759.044 2495.334,755.255 C2497.703,751.418 2501.064,722.48 2501.064,722.48 C2501.064,722.48 2556.621,775.243 2662.099,775.243 C2785.906,775.243 2856.857,712.439 2856.857,493.337 C2856.859,274.518 2743.471,245.839 2666.932,245.839 Z M2613.791,646.225 C2567.09,644.804 2535.451,623.585 2535.451,623.585 L2535.451,398.515 C2535.451,398.515 2566.758,379.309 2605.123,375.922 C2653.67,371.612 2700.561,386.248 2700.561,502.052 C2700.322,624.059 2679.199,648.166 2613.791,646.225 Z M1185.125,643.667 C1179.156,643.667 1163.906,646.035 1148.275,646.035 C1098.355,646.035 1081.304,622.779 1081.304,592.704 L1081.304,392.854 L1183.23,392.854 C1189.482,392.854 1194.408,387.81 1194.408,381.511 L1194.408,272.031 C1194.502,265.732 1189.482,260.687 1183.23,260.687 L1081.304,260.687 L1081.161,126.152 C1081.161,121.06 1078.462,118.527 1072.589,118.527 L933.861,118.527 C928.509,118.527 925.525,120.918 925.525,126.105 L925.525,265.14 C925.525,265.14 855.949,281.93 851.259,283.328 C846.618,284.654 843.208,289.012 843.208,294.15 L843.208,381.558 C843.208,387.81 848.276,392.902 854.386,392.902 L925.525,392.902 L925.525,603.124 C925.525,759.233 1035.078,774.579 1108.964,774.579 C1142.687,774.579 1183.04,763.591 1189.812,761.223 C1193.886,759.802 1196.207,755.586 1196.207,751.087 L1196.254,654.986 C1196.254,648.688 1190.998,643.572 1185.125,643.667 Z" id="Shape"></path>
        </g>
    </g>
</svg>